# xmcd
#
# Track frame offsets: 
#        150
#        20940
#        39997
#        59937
#        77310
#        92255
#        111470
#        130202
#        153195
#        175550
#        189830
#        203972
#        227990
#        253290
#        282320
#
# Disc length: 4133 seconds
#
# Revision: 3
# Processed by: cddbd v1.5.2PL0 Copyright (c) Steve Scherf et al.
# Submitted via: ExactAudioCopy v1.1
#
DISCID=cc10230f
DTITLE=The Dells - Anthology - Disc 2
DYEAR=1999
DGENRE=R&B
TTITLE0=Give Your Baby A Standing Ovation
TTITLE1=My Pretending Days Are Over
TTITLE2=I Miss You
TTITLE3=I Wish It Was Me You Loved
TTITLE4=Learning To Love You Was Easy
TTITLE5=We Got To Get Our Thing Together
TTITLE6=Slow Motion
TTITLE7=Our Love
TTITLE8=Betcha Never Been Loved (Like This Before)
TTITLE9=Private Property
TTITLE10=Super Woman
TTITLE11=I Touched A Dream
TTITLE12=Passionate Breezes
TTITLE13=Stay In My Corner (Chi-Sound version)
TTITLE14=A Heart Is A House For Love
EXTD=ID3G: 42
EXTT0=
EXTT1=
EXTT2=
EXTT3=
EXTT4=
EXTT5=
EXTT6=
EXTT7=
EXTT8=
EXTT9=
EXTT10=
EXTT11=
EXTT12=
EXTT13=
EXTT14=
PLAYORDER=
